<?xml version="1.0" encoding="UTF-8"?>
<svg width="90px" height="90px" viewBox="0 0 90 90" version="1.1" xmlns="http://www.w3.org/2000/svg" xmlns:xlink="http://www.w3.org/1999/xlink">
    <title>DOC</title>
    <defs>
        <filter x="-2.7%" y="-3.4%" width="105.3%" height="106.9%" filterUnits="objectBoundingBox" id="filter-1">
            <feOffset dx="0" dy="2" in="SourceAlpha" result="shadowOffsetOuter1"></feOffset>
            <feMorphology radius="1" operator="erode" in="SourceAlpha" result="shadowInner"></feMorphology>
            <feOffset dx="0" dy="2" in="shadowInner" result="shadowInner"></feOffset>
            <feComposite in="shadowOffsetOuter1" in2="shadowInner" operator="out" result="shadowOffsetOuter1"></feComposite>
            <feGaussianBlur stdDeviation="4" in="shadowOffsetOuter1" result="shadowBlurOuter1"></feGaussianBlur>
            <feColorMatrix values="0 0 0 0 0   0 0 0 0 0   0 0 0 0 0  0 0 0 0.15 0" type="matrix" in="shadowBlurOuter1" result="shadowMatrixOuter1"></feColorMatrix>
            <feMerge>
                <feMergeNode in="shadowMatrixOuter1"></feMergeNode>
                <feMergeNode in="SourceGraphic"></feMergeNode>
            </feMerge>
        </filter>
    </defs>
    <g id="数字毛竹信息平台" stroke="none" stroke-width="1" fill="none" fill-rule="evenodd">
        <g id="种植生产-种植品种管理弹窗-2" transform="translate(-852.000000, -595.000000)" fill-rule="nonzero">
            <g id="编组-5备份" filter="url(#filter-1)" transform="translate(588.000000, 202.000000)">
                <g id="编组-19" transform="translate(64.000000, 80.000000)">
                    <g id="编组-13备份" transform="translate(211.500000, 328.000000)">
                        <g id="DOC" transform="translate(3.500000, 0.000000)">
                            <rect id="矩形" fill="#000000" opacity="0" x="0" y="0" width="60" height="60"></rect>
                            <path d="M10.4736328,3.75 C9.81776563,3.75 9.11854687,4.01220703 8.63818359,4.53662109 C8.15712109,5.06103516 7.8515625,5.71690234 7.8515625,6.37207031 L7.8515625,53.5693359 C7.8515625,54.2252031 8.11376953,54.9244219 8.63818359,55.4047852 C9.16259766,55.9291992 9.81846484,56.1914062 10.4736328,56.1914062 L48.9306641,56.1914062 C49.5865313,56.1914062 50.28575,55.9291992 50.7661133,55.4047852 C51.2905273,54.8803711 51.5527344,54.2245039 51.5527344,53.5693359 L51.5527344,18.6083984 L36.6943359,3.75 L10.4736328,3.75 Z" id="路径" fill="#5795FF"></path>
                            <path d="M51.5332031,18.6083984 L39.296875,18.6083984 C38.6410078,18.6083984 37.9417891,18.3461914 37.4614258,17.8217773 C36.9370117,17.3407148 36.6748047,16.6414961 36.6748047,15.9863281 L36.6748047,3.75 L51.5332031,18.6083984 Z" id="路径" fill="#BBD3FC"></path>
                            <path d="M18.6796875,39.609375 C20.2546875,39.609375 21.4640625,39.1453125 22.3078125,38.23125 C23.109375,37.359375 23.5171875,36.1359375 23.5171875,34.5890625 C23.5171875,33.0140625 23.1375,31.790625 22.3921875,30.946875 C21.5765625,30.01875 20.38125,29.56875 18.7921875,29.56875 L15.1921875,29.56875 L15.1921875,39.609375 L18.6796875,39.609375 Z M18.4828125,38.6109375 L16.3453125,38.6109375 L16.3453125,30.5671875 L18.609375,30.5671875 C19.93125,30.5671875 20.8875,30.9046875 21.50625,31.59375 C22.0828125,32.240625 22.378125,33.2390625 22.378125,34.5890625 C22.378125,35.896875 22.0546875,36.8953125 21.4359375,37.5703125 C20.775,38.259375 19.790625,38.6109375 18.4828125,38.6109375 Z M29.49375,39.80625 C30.9984375,39.80625 32.19375,39.3 33.065625,38.3015625 C33.88125,37.3453125 34.303125,36.121875 34.303125,34.603125 C34.303125,33.0703125 33.88125,31.8328125 33.065625,30.8765625 C32.19375,29.8640625 30.9984375,29.371875 29.5078125,29.371875 C27.9890625,29.371875 26.8078125,29.878125 25.9359375,30.890625 C25.10625,31.846875 24.6984375,33.084375 24.6984375,34.603125 C24.6984375,36.1078125 25.10625,37.3453125 25.9359375,38.3015625 C26.8078125,39.3 27.9890625,39.80625 29.49375,39.80625 Z M29.49375,38.7796875 C28.340625,38.7796875 27.4265625,38.3859375 26.7796875,37.5984375 C26.1609375,36.8390625 25.8515625,35.840625 25.8515625,34.603125 C25.8515625,33.3515625 26.1609375,32.353125 26.7796875,31.59375 C27.440625,30.7921875 28.3546875,30.3984375 29.5078125,30.3984375 C30.6609375,30.3984375 31.5609375,30.778125 32.2078125,31.5515625 C32.8265625,32.3109375 33.15,33.3234375 33.15,34.603125 C33.15,35.86875 32.8265625,36.8671875 32.2078125,37.6265625 C31.5609375,38.3859375 30.646875,38.7796875 29.49375,38.7796875 Z M40.1953125,39.80625 C41.2640625,39.80625 42.1921875,39.496875 42.965625,38.8921875 C43.7953125,38.2453125 44.315625,37.33125 44.540625,36.1640625 L43.4296875,36.1640625 C43.2328125,37.0359375 42.825,37.696875 42.234375,38.146875 C41.671875,38.56875 40.996875,38.7796875 40.1953125,38.7796875 C39.0140625,38.7796875 38.128125,38.3859375 37.509375,37.6125 C36.91875,36.88125 36.6375,35.8828125 36.6375,34.63125 C36.6375,33.3796875 36.9328125,32.38125 37.5234375,31.621875 C38.15625,30.80625 39.05625,30.3984375 40.2234375,30.3984375 C41.0109375,30.3984375 41.671875,30.58125 42.2203125,30.9609375 C42.7828125,31.3546875 43.1484375,31.9171875 43.2890625,32.6484375 L44.4,32.6484375 C44.259375,31.65 43.809375,30.8484375 43.05,30.2578125 C42.290625,29.6671875 41.3484375,29.371875 40.2375,29.371875 C38.690625,29.371875 37.48125,29.8921875 36.6375,30.9609375 C35.8640625,31.9171875 35.484375,33.140625 35.484375,34.63125 C35.484375,36.121875 35.85,37.33125 36.609375,38.259375 C37.4390625,39.2859375 38.634375,39.80625 40.1953125,39.80625 Z" fill="#FFFFFF"></path>
                        </g>
                    </g>
                </g>
            </g>
        </g>
    </g>
</svg>