<?xml version="1.0" encoding="UTF-8"?>
<svg width="90px" height="90px" viewBox="0 0 90 90" version="1.1" xmlns="http://www.w3.org/2000/svg" xmlns:xlink="http://www.w3.org/1999/xlink">
    <title>XLS</title>
    <defs>
        <filter x="-2.7%" y="-3.4%" width="105.3%" height="106.9%" filterUnits="objectBoundingBox" id="filter-1">
            <feOffset dx="0" dy="2" in="SourceAlpha" result="shadowOffsetOuter1"></feOffset>
            <feMorphology radius="1" operator="erode" in="SourceAlpha" result="shadowInner"></feMorphology>
            <feOffset dx="0" dy="2" in="shadowInner" result="shadowInner"></feOffset>
            <feComposite in="shadowOffsetOuter1" in2="shadowInner" operator="out" result="shadowOffsetOuter1"></feComposite>
            <feGaussianBlur stdDeviation="4" in="shadowOffsetOuter1" result="shadowBlurOuter1"></feGaussianBlur>
            <feColorMatrix values="0 0 0 0 0   0 0 0 0 0   0 0 0 0 0  0 0 0 0.15 0" type="matrix" in="shadowBlurOuter1" result="shadowMatrixOuter1"></feColorMatrix>
            <feMerge>
                <feMergeNode in="shadowMatrixOuter1"></feMergeNode>
                <feMergeNode in="SourceGraphic"></feMergeNode>
            </feMerge>
        </filter>
    </defs>
    <g id="数字毛竹信息平台" stroke="none" stroke-width="1" fill="none" fill-rule="evenodd">
        <g id="种植生产-种植品种管理弹窗-2" transform="translate(-1053.000000, -595.000000)" fill-rule="nonzero">
            <g id="编组-5备份" filter="url(#filter-1)" transform="translate(588.000000, 202.000000)">
                <g id="编组-19" transform="translate(64.000000, 80.000000)">
                    <g id="XLS" transform="translate(416.000000, 328.000000)">
                        <rect id="矩形" fill="#000000" opacity="0" x="0" y="0" width="60" height="60"></rect>
                        <path d="M10.4736328,3.75 C9.81776563,3.75 9.11854687,4.01220703 8.63818359,4.53662109 C8.15712109,5.06103516 7.8515625,5.71690234 7.8515625,6.37207031 L7.8515625,53.5693359 C7.8515625,54.2252031 8.11376953,54.9244219 8.63818359,55.4047852 C9.16259766,55.9291992 9.81846484,56.1914062 10.4736328,56.1914062 L48.9306641,56.1914062 C49.5865313,56.1914062 50.28575,55.9291992 50.7661133,55.4047852 C51.2905273,54.8803711 51.5527344,54.2245039 51.5527344,53.5693359 L51.5527344,18.6083984 L36.6943359,3.75 L10.4736328,3.75 Z" id="路径" fill="#29C9AD"></path>
                        <path d="M51.5332031,18.6083984 L39.296875,18.6083984 C38.6410078,18.6083984 37.9417891,18.3461914 37.4614258,17.8217773 C36.9370117,17.3407148 36.6748047,16.6414961 36.6748047,15.9863281 L36.6748047,3.75 L51.5332031,18.6083984 Z" id="路径" fill="#97DDD1"></path>
                        <path d="M18.1871484,39.5890625 L21.1551484,35.3050625 L24.1371484,39.5890625 L25.5511484,39.5890625 L21.8411484,34.3950625 L25.2851484,29.5930625 L23.8711484,29.5930625 L21.1551484,33.4850625 L18.4531484,29.5930625 L17.0391484,29.5930625 L20.4551484,34.3950625 L16.7731484,39.5890625 L18.1871484,39.5890625 Z M33.5451484,39.5890625 L33.5451484,38.5950625 L27.7631484,38.5950625 L27.7631484,29.5930625 L26.6291484,29.5930625 L26.6291484,39.5890625 L33.5451484,39.5890625 Z M38.3751484,39.7850625 C39.5651484,39.7850625 40.5031484,39.5330625 41.2031484,39.0430625 C41.9031484,38.5390625 42.2531484,37.8390625 42.2531484,36.9710625 C42.2531484,36.0610625 41.8331484,35.3610625 41.0071484,34.8570625 C40.5871484,34.6050625 39.7191484,34.2830625 38.4031484,33.8910625 C37.4371484,33.6110625 36.8211484,33.4010625 36.5691484,33.2610625 C35.9951484,32.9530625 35.7151484,32.5470625 35.7151484,32.0430625 C35.7151484,31.4690625 35.9531484,31.0490625 36.4291484,30.7690625 C36.8491484,30.5170625 37.4231484,30.4050625 38.1651484,30.4050625 C38.9771484,30.4050625 39.6071484,30.5730625 40.0551484,30.9370625 C40.4891484,31.2870625 40.7691484,31.8190625 40.8951484,32.5470625 L42.0291484,32.5470625 C41.9311484,31.4970625 41.5531484,30.6990625 40.8811484,30.1670625 C40.2371484,29.6490625 39.3411484,29.3970625 38.2211484,29.3970625 C37.1851484,29.3970625 36.3311484,29.6210625 35.6731484,30.0690625 C34.9311484,30.5450625 34.5671484,31.2310625 34.5671484,32.0990625 C34.5671484,32.9390625 34.9451484,33.5830625 35.7151484,34.0310625 C36.0371484,34.1990625 36.8071484,34.4790625 38.0111484,34.8430625 C39.1311484,35.1650625 39.8451484,35.4030625 40.1251484,35.5710625 C40.7831484,35.9210625 41.1191484,36.4110625 41.1191484,37.0410625 C41.1191484,37.5730625 40.8671484,37.9930625 40.3631484,38.3010625 C39.8591484,38.6090625 39.1871484,38.7630625 38.3751484,38.7630625 C37.4791484,38.7630625 36.8071484,38.5670625 36.3451484,38.2030625 C35.8411484,37.7970625 35.5331484,37.1530625 35.4351484,36.2850625 L34.3011484,36.2850625 C34.3851484,37.5170625 34.8191484,38.4270625 35.6031484,39.0290625 C36.2751484,39.5330625 37.1991484,39.7850625 38.3751484,39.7850625 Z" fill="#FFFFFF"></path>
                    </g>
                </g>
            </g>
        </g>
    </g>
</svg>